HIERARCHY
ROOT Hips
{
  OFFSET -331.093 83.8371 -317.828
  CHANNELS 6 Xposition Yposition Zposition Zrotation Xrotation Yrotation
  JOINT LeftUpLeg
  {
    OFFSET 8.64259 1.95398 -2.38835
    CHANNELS 3 Zrotation Xrotation Yrotation
    JOINT LeftLeg
    {
      OFFSET 43.7702 0 0
      CHANNELS 3 Zrotation Xrotation Yrotation
      JOINT LeftFoot
      {
        OFFSET 40.6238 0 0
        CHANNELS 3 Zrotation Xrotation Yrotation
        JOINT LeftToeBase
        {
          OFFSET 12.7242 0 0
          CHANNELS 3 Zrotation Xrotation Yrotation
          End Site
          {
            OFFSET 0 0 0
          }
        }
      }
    }
  }
  JOINT RightUpLeg
  {
    OFFSET -8.2249 1.95398 -2.59336
    CHANNELS 3 Zrotation Xrotation Yrotation
    JOINT RightLeg
    {
      OFFSET 43.5653 0 0
      CHANNELS 3 Zrotation Xrotation Yrotation
      JOINT RightFoot
      {
        OFFSET 40.6238 0 0
        CHANNELS 3 Zrotation Xrotation Yrotation
        JOINT RightToeBase
        {
          OFFSET 12.7242 0 0
          CHANNELS 3 Zrotation Xrotation Yrotation
          End Site
          {
            OFFSET 0 0 0
          }
        }
      }
    }
  }
  JOINT Spine
  {
    OFFSET 0.165834 0.87714 6.61349
    CHANNELS 3 Zrotation Xrotation Yrotation
    JOINT Spine1
    {
      OFFSET 7.38963 1.71661e-005 0
      CHANNELS 3 Zrotation Xrotation Yrotation
      JOINT Spine2
      {
        OFFSET 11.9445 1.14441e-005 0
        CHANNELS 3 Zrotation Xrotation Yrotation
        JOINT Spine3
        {
          OFFSET 14.7254 4.19617e-005 0
          CHANNELS 3 Zrotation Xrotation Yrotation
          JOINT Spine4
          {
            OFFSET 10.9679 0 0
            CHANNELS 3 Zrotation Xrotation Yrotation
            JOINT RightShoulder
            {
              OFFSET 2.46616 -1.6653 3.69651
              CHANNELS 3 Zrotation Xrotation Yrotation
              JOINT RightArm
              {
                OFFSET 13.0012 0 0
                CHANNELS 3 Zrotation Xrotation Yrotation
                JOINT RightForeArm
                {
                  OFFSET 28.7848 1.62311e-005 0
                  CHANNELS 3 Zrotation Xrotation Yrotation
                  JOINT RightHand
                  {
                    OFFSET 26.5688 1.62095e-005 0
                    CHANNELS 3 Zrotation Xrotation Yrotation
                    End Site
                    {
                      OFFSET 0 0 0
                    }
                  }
                }
              }
            }
            JOINT LeftShoulder
            {
              OFFSET 2.38034 -1.29275 -3.7523
              CHANNELS 3 Zrotation Xrotation Yrotation
              JOINT LeftArm
              {
                OFFSET 16.3182 6.07031e-005 0
                CHANNELS 3 Zrotation Xrotation Yrotation
                JOINT LeftForeArm
                {
                  OFFSET 27.0901 0 0
                  CHANNELS 3 Zrotation Xrotation Yrotation
                  JOINT LeftHand
                  {
                    OFFSET 24.5451 1.51738e-005 0
                    CHANNELS 3 Zrotation Xrotation Yrotation
                    End Site
                    {
                      OFFSET 0 0 0
                    }
                  }
                }
              }
            }
            JOINT Neck
            {
              OFFSET 5.0226 -0.0266342 0
              CHANNELS 3 Zrotation Xrotation Yrotation
              JOINT Head
              {
                OFFSET 6.69364 2.86102e-005 0
                CHANNELS 3 Zrotation Xrotation Yrotation
                End Site
                {
                  OFFSET 0 0 0
                }
              }
            }
          }
        }
      }
    }
  }
}
MOTION
Frames:	17
Frame Time:	0.0416667
-328.918 83.9331 -334.003 70.7371 -49.5585 69.4348 -159.363 55.4253 75.2867 -41.3483 -76.7961 32.15 81.3407 -25.8163 -119.905 1.03979 -28.145 41.5067 111.764 43.6615 141.896 -0.202933 1.35552 7.69514 5.62666 13.7785 26.0896 -1.75609 3.27227 -18.0855 1.3215 4.50203 -90.8044 17.8907 2.17795 -2.04002 6.21985 2.08605 -2.13389 -16.3238 2.69027 -1.29103 3.6888 2.69031 -1.29102 109.291 -46.7821 -70.2201 12.366 -20.3751 32.921 -170.547 -10.8218 -59.5893 -6.28886 0.23422 98.3581 -99.0562 -62.9384 70.0153 -40.999 10.375 69.691 14.4712 12.569 -67.6453 26.3679 1.31766 1.12244 -32.4319 -8.35136 29.7576 9.72293 -5.92455 -18.4159 
-324.163 88.1648 -328.45 66.3485 -51.9762 64.8622 -159.982 50.9409 78.6728 -71.6612 -33.0488 2.8014 75.5962 -34.3617 -67.2532 10.1657 -14.6071 31.107 87.4711 17.6291 139.544 -5.13693 -26.9801 29.4983 9.25782 18.7963 21.1756 -3.15283 4.04145 -21.1602 1.12621 5.76911 -90.2756 15.3441 2.08642 -0.892155 3.67444 2.04515 -0.983142 -18.8736 2.25807 -0.223567 1.13908 2.25806 -0.223562 94.1601 -45.1992 -94.7777 14.5676 -3.51188 25.4173 -169.646 -7.8287 -65.4338 -6.04392 0.196189 102.521 -95.8945 -59.1227 73.087 -41.6849 8.37327 62.8036 15.5831 5.84195 -74.1513 21.8947 1.83649 4.53717 -27.959 -5.47879 19.5158 19.7231 -4.71722 -8.06543 
-319.406 89.4137 -320.916 60.4815 -49.5083 64.5948 -162.024 61.9683 81.6061 -69.3466 22.1027 -2.82974 49.7037 2.96762 10.5502 41.1194 19.4758 22.1935 54.7316 1.24271 130.035 -25.4178 -56.0445 38.4081 17.5288 18.8172 15.6805 -2.85846 4.45989 -24.1263 1.46993 6.49437 -89.9209 13.8956 2.95344 -0.223762 2.22801 2.94072 -0.353645 -20.3334 2.88401 0.674978 -0.320748 2.88403 0.674976 93.1903 -41.0156 -97.3049 24.5669 4.491 10.907 -171.848 -11.3835 -74.5845 -5.30274 1.08525 108.011 -93.0152 -49.7624 74.6659 -47.5581 13.5341 60.3812 15.4962 -1.43599 -78.751 20.6648 1.74227 4.61654 -12.1272 -3.29496 2.41082 15.1025 -3.167 2.43418 
-312.099 94.4384 -315.048 64.1659 -50.1102 66.7184 -166.045 53.5696 83.1206 -45.4106 19.9901 -3.61498 50.571 -3.9506 4.39566 37.7366 17.1294 24.9992 31.7152 7.58515 131.06 152.871 -79.9253 -127.125 29.1303 19.5499 7.26368 0.617429 3.24369 -21.0401 1.68175 7.4148 -89.6327 12.0433 3.51673 0.347249 0.377042 3.52863 0.191938 -22.1916 3.2496 1.3892 -2.17893 3.24962 1.38921 94.2371 -33.7462 -97.0386 33.0236 5.45576 3.29929 -172.472 -13.9175 -82.0181 -4.20896 2.84382 105.021 -92.4302 -44.658 74.1518 -50.8819 13.3447 57.417 13.1658 -5.32402 -80.5778 17.074 1.31165 3.76652 -5.22414 -4.37659 1.00679 13.4622 -4.12834 2.10165 
-304.156 96.4718 -307.726 64.7387 -48.9509 67.684 -168.34 48.9858 83.5469 -31.1944 17.3755 -3.90792 49.1205 -4.41513 3.41337 41.6725 20.4138 22.5091 61.1403 42.7484 141.941 163.655 -75.537 -101.75 53.3998 -14.9034 -21.8382 9.14656 1.18438 -15.5596 1.77004 7.64978 -89.4988 11.5689 3.75586 0.611725 -0.0966608 3.77913 0.445596 -22.6679 3.39821 1.71344 -2.65529 3.39819 1.71343 95.2317 -30.8353 -95.78 36.5622 2.56934 1.45039 -172.773 -16.0826 -88.1678 -3.22438 4.00373 99.6298 -91.5865 -40.5581 74.3182 -53.8279 12.7427 54.8669 11.5227 -7.49538 -82.1245 17.5534 1.02067 1.94966 -4.31653 -5.1111 -1.28437 14.5795 -4.46753 2.96796 
-297.393 97.2339 -300.428 65.1595 -47.8905 70.6985 -169.071 45.5692 84.9066 -23.4978 15.9133 -3.39462 47.0859 -5.36281 2.91272 42.0826 22.5141 25.2915 161.261 56.1248 92.4834 -99.567 -37.57 -5.49441 103.013 -33.6619 -8.60412 13.2467 0.496198 -12.9691 1.6396 7.51219 -89.6326 11.8482 3.43339 0.365712 0.181754 3.44613 0.214058 -22.385 3.16459 1.38167 -2.37235 3.16457 1.38165 95.0993 -31.3586 -95.9231 36.6253 -5.19901 4.26103 -175.964 -19.0666 -94.587 -3.20342 4.22082 102.217 -90.544 -39.8628 75.8417 -52.3378 10.1246 52.7956 13.1564 -7.30366 -84.2291 17.474 1.28472 3.46771 -5.74504 -4.59486 -2.41562 15.3477 -3.89213 2.7313 
-291.422 97.1794 -293.315 68.756 -46.9694 74.1811 -168.306 39.6877 84.4954 -21.2985 14.9898 -3.22242 46.3144 -6.06464 0.217311 40.8445 22.195 27.2961 171.119 35.8913 90.6918 -93.9332 -20.6972 -6.98573 119.444 -30.5872 -3.68236 13.9007 0.385356 -10.6123 1.33845 7.61851 -89.6606 11.6348 2.82143 0.382224 -0.0330656 2.83552 0.257566 -22.5891 2.57604 1.21304 -2.5765 2.57603 1.21303 94.3753 -32.9672 -96.9584 36.8984 -12.0504 8.64973 -178.085 -20.1951 -100.869 -4.33094 1.13184 114.368 -90.5669 -42.105 76.4159 -47.7212 7.70561 48.8863 13.8058 -6.58753 -85.919 20.2389 1.48888 3.53752 -7.44915 -3.81243 -1.87036 15.9562 -3.48194 0.866475 
-285.587 96.8968 -286.673 73.4623 -47.4162 77.6941 -167.132 32.0573 84.317 -21.7784 19.1048 -3.7008 45.459 -5.58254 4.81016 43.6732 18.1923 14.4102 173.135 20.187 89.6834 -86.4247 -12.4537 -5.86922 120.469 -29.3448 -2.83084 19.3388 -0.144221 -8.31595 1.19032 7.87994 -89.5814 11.1088 2.56363 0.584309 -0.559702 2.58685 0.47083 -23.1105 2.26946 1.3281 -3.09787 2.26948 1.3281 93.4443 -35.6796 -98.0606 37.4331 -16.3326 13.3781 -125.234 -19.9859 -90.9378 -27.2235 -50.0683 131.117 -91.4235 -44.9716 75.8149 -41.4486 6.13885 43.8848 12.9254 -6.24421 -88.1526 22.5985 1.82799 4.26783 -9.05292 -3.11629 -1.51113 17.0906 -3.13537 -0.910051 
-279.552 96.1562 -280.997 77.2437 -47.8491 79.6773 -167.033 25.4638 83.582 -26.4543 13.447 -4.11425 53.5233 2.93598 8.54241 41.6704 10.1278 0.853903 173.324 15.4721 89.0624 -87.1675 -5.16243 -5.31814 106.804 -21.8837 -5.02001 36.2 -1.12675 -5.39808 0.989754 8.13824 -89.2793 10.5846 2.30271 1.22507 -1.08475 2.35439 1.12248 -23.6265 1.82811 1.86055 -3.61389 1.82812 1.86055 92.1779 -39.0189 -99.5098 38.0699 -18.4268 16.4702 21.0937 15.9355 -84.7524 -159.064 34.8252 -13.1645 -91.802 -45.9401 75.4833 -35.5525 4.05376 37.5542 12.6906 -5.87135 -90.526 24.2088 2.24952 5.51295 -9.7377 -2.28949 -3.36665 18.2282 -2.17506 -0.621166 
-273.769 95.2775 -275.882 78.9009 -47.7573 80.3756 -168.048 20.7691 82.9781 -29.774 10.9264 -3.96983 56.6007 7.78719 11.3907 48.4701 17.1799 3.94411 173.228 26.7095 89.2555 -95.5392 1.66796 -5.01521 71.8046 -2.5662 -2.58847 66.4704 1.56552 4.8201 0.446662 8.44866 -88.7628 9.9605 1.4526 2.33841 -1.71157 1.55411 2.27225 -24.2324 0.682907 2.66665 -4.21979 0.682923 2.66664 89.6734 -40.7511 -103.361 40.3339 -18.9909 15.633 -154.374 -25.5199 -115.051 23.2124 -10.0234 -115.869 -88.1777 -42.2694 80.4087 -33.5079 2.03098 27.5292 13.4719 -5.43378 -92.4266 26.0518 2.80485 7.03626 -4.75764 0.0400736 -5.29395 15.703 0.416982 -1.03473 
-268.474 93.3565 -271.003 78.355 -43.7627 80.5786 -169.945 20.8083 82.9445 -36.768 14.1195 -3.25266 57.6002 9.83512 15.2921 56.0603 24.2608 4.47923 168.393 40.687 90.0091 -97.8395 5.45234 -4.3407 50.844 5.71738 3.63427 67.116 5.51429 13.7554 0.142202 8.21724 -89.3758 10.4329 0.569441 1.18881 -1.23855 0.6212 1.16259 -23.7687 0.185886 1.30497 -3.75602 0.185876 1.30497 91.4029 -40.4111 -100.497 39.8468 -19.3507 24.1313 -13.5638 -6.73477 -64.0821 20.0638 3.56264 27.4106 -95.8538 -49.719 70.4468 -24.0928 -0.970918 20.8899 12.0218 -4.42916 -93.4226 26.9155 2.76193 6.51886 -5.70254 -0.508539 -0.834836 15.5405 -0.623561 -1.27754 
-261.943 91.2762 -264.52 78.2194 -40.316 80.8949 -171.845 18.262 84.1829 -42.8417 15.4624 -2.40774 62.1634 11.1404 13.6404 58.8479 28.3262 6.67553 162.065 50.906 93.1795 -96.4261 4.11987 -3.0994 53.9857 4.57493 2.94956 37.33 1.23723 4.77869 -0.403272 8.08125 -89.4287 10.7127 -0.539743 1.18506 -0.958654 -0.487088 1.20766 -23.4919 -0.870948 0.968086 -3.47921 -0.870957 0.968066 90.3113 -42.6601 -101.752 39.4529 -19.8629 31.1931 -13.9092 -8.54965 -61.9165 -12.793 -1.00025 2.82334 -94.5287 -47.344 71.7157 -23.393 -2.59596 14.0604 13.9462 -4.69196 -96.4074 28.2172 3.17049 7.50269 -5.8218 0.845361 -1.47509 15.3548 0.906266 -0.402582 
-254.382 90.3629 -256.56 79.1759 -37.1092 80.4975 -173.749 10.8866 85.7671 -41.8975 19.9478 -1.57764 63.2104 8.01941 9.79599 59.6923 31.4076 9.76877 162.72 56.4125 92.7076 -89.157 2.43025 -1.34287 58.8898 2.29275 1.19027 19.3159 -0.057918 -6.32997 -1.06573 7.90719 -89.3963 11.0703 -1.84146 1.37904 -0.600203 -1.77899 1.45875 -23.1436 -2.17074 0.761712 -3.13092 -2.17075 0.761708 90.4102 -43.2775 -101.421 40.95 -21.8773 39.1578 -12.9443 -7.67825 -62.7787 -14.698 0.0436999 -6.42221 -92.5215 -44.9668 74.098 -24.4505 -4.59512 10.7081 13.7607 -5.61454 -102.607 28.6741 3.00839 6.754 -7.39246 2.72664 -1.84901 14.9822 3.04016 1.37687 
-246.02 90.2626 -247.719 78.8515 -38.6276 81.247 -173.284 1.45573 89.4137 -35.7914 21.5492 -1.18882 62.1112 0.934969 -1.26238 44.4433 27.5638 28.7129 169.376 57.7454 92.1545 -74.5047 5.77974 0.252322 53.8032 3.26477 2.29711 32.415 -0.888342 -5.5788 -1.22185 7.70459 -89.635 11.4759 -2.26024 0.957792 -0.193458 -2.21589 1.05637 -22.7441 -2.44355 0.233852 -2.73151 -2.44354 0.233852 90.6669 -41.1367 -101.562 43.6791 -22.5271 46.0292 -14.8274 -7.14353 -65.642 -11.8758 -0.297578 -3.27693 -91.1905 -43.9624 75.9126 -24.4569 -5.98991 10.4453 12.8364 -6.80087 -110.204 29.738 2.73765 5.4651 -8.43025 4.75515 0.109814 13.9876 5.02383 2.391 
-238.027 91.1812 -239.235 79.6003 -39.0558 83.2924 -172.551 -7.58926 93.9029 -26.104 23.4754 0.193591 52.3308 -6.44241 -6.62721 28.4359 9.46229 32.8073 173.947 54.8057 91.8303 -54.6425 3.7157 1.04192 52.9753 3.14053 2.28401 28.3131 -1.2083 -10.6184 -1.38091 7.59018 -89.9214 11.7022 -2.7098 0.439748 0.0339213 -2.68782 0.558658 -22.5236 -2.7166 -0.395603 -2.51096 -2.71659 -0.395606 91.359 -39.9206 -100.705 44.7055 -22.1071 51.0064 -16.5036 -6.28112 -67.7199 -9.8826 -0.0721053 -6.05466 -90.6265 -43.0356 76.5675 -23.7321 -7.00477 12.6928 12.5774 -8.36117 -117.632 26.4318 2.74139 6.59539 -9.13553 6.01328 -0.801338 12.8369 6.76873 5.91784 
-230.306 92.2704 -231.206 80.1734 -38.4178 82.7858 -174.318 -11.8902 93.1967 -25.0865 26.3335 1.7718 43.0184 -11.1173 -5.99479 20.6824 -4.07703 15.9105 176.904 49.4935 89.1439 -32.3732 0.500316 0.409338 47.8457 4.7543 3.8403 22.8971 -0.521871 -8.96274 -1.73913 7.51388 -89.9703 11.8572 -3.44427 0.427147 0.190734 -3.42215 0.578487 -22.3804 -3.41324 -0.629 -2.36775 -3.41323 -0.628992 91.7595 -37.9232 -100.533 44.4152 -20.8756 52.3297 -16.8694 -5.11981 -68.7827 -7.93331 0.0294736 -8.29401 -90.3742 -42.9705 76.9556 -23.4595 -6.25779 14.8442 13.6297 -10.1791 -121.201 24.8538 2.20607 5.09253 -9.43979 7.40253 0.706172 12.5098 8.11061 6.49762 
-222.734 92.5378 -223.657 79.7652 -38.6062 80.902 -175.628 -9.93336 91.2212 -34.0435 21.5569 2.23683 45.6664 -9.51218 -4.32756 20.2567 -4.74277 13.2695 177.953 46.7301 87.6294 -20.2421 -0.873239 -0.233997 40.8791 6.97142 6.40423 23.8199 -0.658409 -9.97198 -1.90924 7.39579 -89.9759 12.0963 -3.78399 0.464554 0.430691 -3.75987 0.630867 -22.1479 -3.74839 -0.69581 -2.13529 -3.74843 -0.695836 92.4948 -34.8515 -100.03 44.9382 -18.8313 51.522 -18.315 -4.06713 -70.286 -8.81234 0.082945 -8.75733 -90.4522 -43.7376 77.0275 -23.928 -2.63048 16.4549 17.7257 -12.3004 -117.512 23.7727 2.13436 5.19042 -8.58508 8.3315 4.53115 11.8288 8.48277 4.46372 
